<svg width="32" height="32" viewBox="0 0 32 32" fill="none" xmlns="http://www.w3.org/2000/svg">
<path d="M18.6666 17.6665H20.6666V18.6665H18.6666V17.6665ZM22.6666 18.6665H24.6666V17.6665H22.6666V18.6665ZM18.6666 22.6665H20.6666V21.6665H18.6666V22.6665ZM22.6666 22.6665H24.6666V21.6665H22.6666V22.6665ZM18.6666 10.6665H20.6666V9.6665H18.6666V10.6665ZM22.6666 10.6665H24.6666V9.6665H22.6666V10.6665ZM18.6666 14.6665H20.6666V13.6665H18.6666V14.6665ZM22.6666 14.6665H24.6666V13.6665H22.6666V14.6665ZM28.6666 7.1665V28.6665H4.66663V12.9955C4.66663 12.3275 4.92663 11.6995 5.39863 11.2275L8.10563 8.5205C9.19063 7.4355 11.1416 7.4355 12.2266 8.5205L14.6656 10.9595V7.1665C14.6656 5.7885 15.7876 4.6665 17.1656 4.6665H26.1656C27.5436 4.6665 28.6666 5.7885 28.6666 7.1665ZM14.6666 12.9955C14.6666 12.5945 14.5106 12.2185 14.2276 11.9345L11.5206 9.2275C10.8076 8.5145 9.52663 8.5145 8.81363 9.2275L6.10563 11.9345C5.82263 12.2185 5.66663 12.5945 5.66663 12.9955V27.6665H14.6666V12.9955ZM27.6666 7.1665C27.6666 6.3395 26.9936 5.6665 26.1666 5.6665H17.1666C16.3396 5.6665 15.6666 6.3395 15.6666 7.1665V27.6665H27.6666V7.1665ZM8.66663 18.6665H11.6666V17.6665H8.66663V18.6665ZM8.66663 14.6665H11.6666V13.6665H8.66663V14.6665ZM8.66663 22.6665H11.6666V21.6665H8.66663V22.6665Z" fill="#A0AEC0" stroke="#A0AEC0" stroke-width="0.5"/>
</svg>
