<svg width="30" height="30" viewBox="0 0 30 30" fill="none" xmlns="http://www.w3.org/2000/svg">
<path d="M26.875 13.625V5.125C26.875 3.25 26.075 2.5 24.0875 2.5L19.0375 2.5C17.05 2.5 16.25 3.25 16.25 5.125L16.25 13.625C16.25 15.5 17.05 16.25 19.0375 16.25H24.0875C26.075 16.25 26.875 15.5 26.875 13.625Z" fill="#002337"/>
<path d="M13.75 16.375L13.75 24.875C13.75 26.75 12.95 27.5 10.9625 27.5H5.9125C3.925 27.5 3.125 26.75 3.125 24.875L3.125 16.375C3.125 14.5 3.925 13.75 5.9125 13.75L10.9625 13.75C12.95 13.75 13.75 14.5 13.75 16.375Z" fill="#002337"/>
<path d="M26.875 24.875V21.375C26.875 19.5 26.075 18.75 24.0875 18.75H19.0375C17.05 18.75 16.25 19.5 16.25 21.375V24.875C16.25 26.75 17.05 27.5 19.0375 27.5H24.0875C26.075 27.5 26.875 26.75 26.875 24.875Z" fill="#002337"/>
<path d="M13.75 8.625L13.75 5.125C13.75 3.25 12.95 2.5 10.9625 2.5L5.9125 2.5C3.925 2.5 3.125 3.25 3.125 5.125L3.125 8.625C3.125 10.5 3.925 11.25 5.9125 11.25L10.9625 11.25C12.95 11.25 13.75 10.5 13.75 8.625Z" fill="#002337"/>
</svg>
