<svg width="32" height="32" viewBox="0 0 32 32" fill="none" xmlns="http://www.w3.org/2000/svg">
<path d="M24.9001 20.3093L15.6393 15.8338L18.6232 5.87877C18.7168 5.56683 18.5425 5.23757 18.232 5.13933C17.106 4.78329 15.9334 4.60272 14.7467 4.60272C8.37983 4.60264 3.2 9.78248 3.2 16.1494C3.2 22.5164 8.37983 27.6963 14.7467 27.6963C16.9722 27.6963 19.1328 27.0615 20.9949 25.8607C22.8077 24.6917 24.2545 23.0462 25.1789 21.1021C25.3197 20.806 25.1952 20.4519 24.9001 20.3093ZM20.3489 24.8587C18.6797 25.9351 16.7425 26.5042 14.7467 26.5042C9.03717 26.5041 4.39212 21.859 4.39212 16.1494C4.39212 10.4399 9.03717 5.79476 14.7467 5.79476C15.6143 5.79476 16.4733 5.90229 17.3079 6.11489L14.3515 15.9782C14.2674 16.2587 14.3995 16.5586 14.6631 16.686L23.8329 21.1175C23.0036 22.6319 21.8086 23.9174 20.3489 24.8587Z" fill="#A0AEC0"/>
<path d="M27.5951 7.67187C26.1338 5.70893 24.1341 4.28316 21.8121 3.54881C21.6599 3.50081 21.4948 3.51559 21.3535 3.59022C21.2124 3.66484 21.1071 3.79304 21.0613 3.94594L17.9315 14.3878C17.8371 14.7032 18.0159 15.0354 18.3313 15.1299C18.6465 15.2244 18.9789 15.0454 19.0734 14.73L22.0243 4.88541C23.8455 5.58463 25.4679 6.81077 26.6388 8.38373C27.9751 10.1787 28.6814 12.3141 28.6814 14.5589C28.6814 15.9095 28.4271 17.2157 27.9246 18.4503L23.251 16.1917C22.9545 16.0484 22.5981 16.1726 22.4549 16.4691C22.3117 16.7654 22.4359 17.1218 22.7322 17.2651L27.9613 19.7922C28.0429 19.8316 28.1317 19.8515 28.2207 19.8515C28.2875 19.8515 28.3544 19.8403 28.4185 19.8177C28.5684 19.7651 28.6908 19.6548 28.759 19.5114C29.4985 17.9563 29.8735 16.29 29.8735 14.5589C29.8736 12.0557 29.0857 9.67424 27.5951 7.67187Z" fill="#A0AEC0"/>
</svg>
