<svg width="32" height="32" viewBox="0 0 32 32" fill="none" xmlns="http://www.w3.org/2000/svg">
<path d="M21.294 19.8925C24.1885 15.3507 23.8246 15.9173 23.908 15.7989C24.9618 14.3125 25.5188 12.5632 25.5188 10.7398C25.5188 5.90439 21.5949 1.92108 16.7531 1.92108C11.9271 1.92108 7.9875 5.89653 7.9875 10.7398C7.9875 12.562 8.55615 14.3572 9.64447 15.8635L12.2121 19.8925C9.46688 20.3144 4.8 21.5716 4.8 24.3398C4.8 25.3489 5.45865 26.787 8.59642 27.9077C10.7874 28.6901 13.6841 29.1211 16.7531 29.1211C22.492 29.1211 28.7063 27.5023 28.7063 24.3398C28.7063 21.5711 24.0449 20.3152 21.294 19.8925ZM10.9757 14.9869C10.967 14.9732 10.9578 14.9598 10.9483 14.9466C10.0426 13.7008 9.58125 12.2242 9.58125 10.7398C9.58125 6.7545 12.7903 3.51483 16.7531 3.51483C20.7077 3.51483 23.925 6.75593 23.925 10.7398C23.925 12.2266 23.4723 13.653 22.6157 14.8661C22.5389 14.9674 22.9394 14.3452 16.7531 24.0524L10.9757 14.9869ZM16.7531 27.5273C10.4847 27.5273 6.39375 25.6848 6.39375 24.3398C6.39375 23.4359 8.4958 21.9495 13.1538 21.3701L16.0811 25.9634C16.2274 26.193 16.4808 26.332 16.7531 26.332C17.0253 26.332 17.2788 26.193 17.4251 25.9634L20.3523 21.3701C25.0104 21.9495 27.1125 23.4359 27.1125 24.3398C27.1125 25.6734 23.0584 27.5273 16.7531 27.5273Z" fill="#A0AEC0"/>
<path d="M16.7531 6.75543C14.5561 6.75543 12.7688 8.54282 12.7688 10.7398C12.7688 12.9368 14.5561 14.7242 16.7531 14.7242C18.9501 14.7242 20.7375 12.9368 20.7375 10.7398C20.7375 8.54282 18.9501 6.75543 16.7531 6.75543ZM16.7531 13.1304C15.4349 13.1304 14.3625 12.058 14.3625 10.7398C14.3625 9.42162 15.4349 8.34918 16.7531 8.34918C18.0713 8.34918 19.1438 9.42162 19.1438 10.7398C19.1438 12.058 18.0713 13.1304 16.7531 13.1304Z" fill="#A0AEC0"/>
</svg>
