<svg width="220" height="41" viewBox="0 0 220 41" fill="none" xmlns="http://www.w3.org/2000/svg">
<g clip-path="url(#clip0_1_1999)">
<path d="M20 40.3034C31.046 40.3034 40 31.436 40 20.4969V6.63232C40 5.05641 39.3679 3.54506 38.2426 2.43073C37.1174 1.31639 35.5913 0.690369 34 0.690369L21 0.690369V9.37948C21 11.3621 21.122 13.416 22.172 15.1036C22.9237 16.3129 23.9293 17.3481 25.1205 18.1387C26.3117 18.9293 27.6607 19.457 29.076 19.6858L29.459 19.7472C29.6169 19.8006 29.754 19.9016 29.851 20.0361C29.9481 20.1705 30.0003 20.3316 30.0003 20.4969C30.0003 20.6621 29.9481 20.8232 29.851 20.9577C29.754 21.0921 29.6169 21.1931 29.459 21.2465L29.076 21.3079C27.0082 21.6425 25.0987 22.6118 23.6171 24.079C22.1356 25.5462 21.1568 27.4372 20.819 29.4851L20.757 29.8643C20.703 30.0207 20.601 30.1565 20.4653 30.2526C20.3296 30.3487 20.1669 30.4004 20 30.4004C19.8331 30.4004 19.6704 30.3487 19.5347 30.2526C19.399 30.1565 19.297 30.0207 19.243 29.8643L19.181 29.4851C18.9499 28.0835 18.4171 26.7476 17.6187 25.5679C16.8204 24.3882 15.7752 23.3923 14.554 22.6479C12.85 21.608 10.776 21.4872 8.774 21.4872H0.0240021C0.547002 31.9658 9.29 40.3034 20 40.3034Z" fill="#0E1534"/>
<path d="M0 19.5065H8.774C10.776 19.5065 12.85 19.3857 14.554 18.3459C15.886 17.5331 17.0073 16.4227 17.828 15.1036C18.878 13.416 19 11.3621 19 9.37948V0.690369H6C4.4087 0.690369 2.88258 1.31639 1.75736 2.43073C0.632141 3.54506 0 5.05641 0 6.63232L0 19.5065ZM46.455 2.67102C46.455 3.19632 46.2443 3.70011 45.8692 4.07155C45.4941 4.44299 44.9854 4.65167 44.455 4.65167C43.9246 4.65167 43.4159 4.44299 43.0408 4.07155C42.6657 3.70011 42.455 3.19632 42.455 2.67102C42.455 2.14572 42.6657 1.64193 43.0408 1.27049C43.4159 0.899044 43.9246 0.690369 44.455 0.690369C44.9854 0.690369 45.4941 0.899044 45.8692 1.27049C46.2443 1.64193 46.455 2.14572 46.455 2.67102ZM211.711 12.6773C217.302 12.6773 220 16.5445 220 21.0237V29.4365H214.149V22.022C214.149 19.9918 213.401 18.3162 211.256 18.3162C209.111 18.3162 208.396 19.9918 208.396 22.022V29.4355H202.545V22.022C202.545 19.9918 201.83 18.3162 199.684 18.3162C197.539 18.3162 196.791 19.9918 196.791 22.022V29.4355H190.941V21.0227C190.941 16.5435 193.638 12.6763 199.229 12.6763C202.285 12.6763 204.495 13.8686 205.503 15.8344C206.575 13.8686 208.916 12.6753 211.711 12.6753V12.6773ZM180.427 24.2799C182.312 24.2799 183.125 22.5716 183.125 20.5404V13.321H188.975V21.2495C188.975 25.9872 186.18 29.9198 180.427 29.9198C174.673 29.9198 171.878 25.9882 171.878 21.2495V13.321H177.729V20.5404C177.729 22.5706 178.541 24.2799 180.427 24.2799ZM163.275 29.9515C159.602 29.9515 157.229 28.6948 155.831 26.2457L160.057 23.8927C160.642 24.9236 161.519 25.4396 162.982 25.4396C164.185 25.4396 164.737 25.0207 164.737 24.5047C164.737 22.5389 156.156 24.5374 156.156 18.2855C156.156 15.2551 158.756 12.806 163.177 12.806C167.045 12.806 169.158 14.6747 170.101 16.4801L165.875 18.8648C165.518 17.8983 164.412 17.3179 163.307 17.3179C162.462 17.3179 162.007 17.6725 162.007 18.1557C162.007 20.1542 170.588 18.3172 170.588 24.376C170.588 27.7599 167.24 29.9515 163.275 29.9515ZM142.833 36.8491H136.982V21.3466C136.982 16.4147 140.72 12.8377 145.921 12.8377C150.992 12.8377 154.86 16.6732 154.86 21.3466C154.86 26.5032 151.414 29.9198 146.246 29.9198C145.043 29.9198 143.841 29.5653 142.833 29.0166V36.8491ZM145.921 24.473C147.774 24.473 149.009 23.0549 149.009 21.3783C149.009 19.6709 147.774 18.2845 145.921 18.2845C144.068 18.2845 142.833 19.6709 142.833 21.3792C142.833 23.0549 144.068 24.473 145.921 24.473ZM131.121 11.6137C129.203 11.6137 127.611 10.0341 127.611 8.13266C127.611 6.23124 129.203 4.65167 131.121 4.65167C133.039 4.65167 134.632 6.23124 134.632 8.13266C134.632 10.0341 133.039 11.6137 131.121 11.6137ZM128.196 13.321H134.047V29.4365H128.196V13.321ZM116.97 29.9198C111.899 29.9198 108.031 26.0526 108.031 21.3466C108.031 16.6732 111.899 12.806 116.97 12.806C122.041 12.806 125.909 16.6732 125.909 21.3466C125.909 26.0526 122.041 29.9198 116.97 29.9198ZM116.97 24.473C118.823 24.473 120.058 23.0549 120.058 21.3783C120.058 19.6709 118.823 18.2528 116.97 18.2528C115.117 18.2528 113.882 19.6709 113.882 21.3783C113.882 23.0549 115.117 24.473 116.97 24.473ZM96.983 37.3324C92.953 37.3324 90.027 35.5597 88.532 32.4006L93.375 29.8228C93.895 30.919 94.87 32.047 96.885 32.047C98.999 32.047 100.396 30.7249 100.559 28.4046C99.779 29.082 98.543 29.597 96.691 29.597C92.172 29.597 88.531 26.1486 88.531 21.3139C88.531 16.6415 92.4 12.8377 97.471 12.8377C102.672 12.8377 106.41 16.4157 106.41 21.3466V27.7282C106.41 33.5295 102.346 37.3324 96.983 37.3324ZM97.373 24.1512C99.128 24.1512 100.461 22.9578 100.461 21.1851C100.461 19.4451 99.129 18.2845 97.373 18.2845C95.65 18.2845 94.285 19.4451 94.285 21.1861C94.285 22.9588 95.65 24.1502 97.373 24.1502V24.1512ZM78.607 29.9198C73.536 29.9198 69.667 26.0526 69.667 21.3466C69.667 16.6732 73.536 12.806 78.607 12.806C83.677 12.806 87.546 16.6732 87.546 21.3466C87.546 26.0526 83.678 29.9198 78.607 29.9198ZM78.607 24.473C80.46 24.473 81.695 23.0549 81.695 21.3783C81.695 19.6709 80.46 18.2528 78.607 18.2528C76.754 18.2528 75.519 19.6709 75.519 21.3783C75.519 23.0549 76.754 24.473 78.607 24.473ZM59.013 7.68206V23.9571H68.7V29.4365H58.2C54.495 29.4365 53 27.5024 53 24.4403V7.68206H59.013Z" fill="#0E1534"/>
</g>
<defs>
<clipPath id="clip0_1_1999">
<rect width="220" height="39.613" fill="white" transform="translate(0 0.690369)"/>
</clipPath>
</defs>
</svg>
