<svg width="32" height="33" viewBox="0 0 32 33" fill="none" xmlns="http://www.w3.org/2000/svg">
<path d="M16.0267 4.04663C11.6133 4.04663 8.02666 7.6333 8.02666 12.0466V15.9C8.02666 16.7133 7.67999 17.9533 7.26666 18.6466L5.73333 21.1933C4.78666 22.7666 5.44 24.5133 7.17333 25.1C12.92 27.02 19.12 27.02 24.8667 25.1C26.48 24.5666 27.1867 22.66 26.3067 21.1933L24.7733 18.6466C24.3733 17.9533 24.0267 16.7133 24.0267 15.9V12.0466C24.0267 7.64663 20.4267 4.04663 16.0267 4.04663Z" stroke="#333333" stroke-width="2" stroke-miterlimit="10" stroke-linecap="round"/>
<circle cx="25.3601" cy="8.08663" r="5.33333" fill="#F23985"/>
<path d="M18.4934 4.43336C18.0801 4.31336 17.6534 4.22002 17.2134 4.16669C15.9334 4.00669 14.7067 4.10002 13.5601 4.43336C13.9467 3.44669 14.9067 2.75336 16.0267 2.75336C17.1467 2.75336 18.1067 3.44669 18.4934 4.43336Z" stroke="#333333" stroke-width="2" stroke-miterlimit="10" stroke-linecap="round" stroke-linejoin="round"/>
<path d="M20.0267 25.58C20.0267 27.78 18.2267 29.58 16.0267 29.58C14.9334 29.58 13.9201 29.1267 13.2001 28.4067C12.4801 27.6867 12.0267 26.6734 12.0267 25.58" stroke="#333333" stroke-width="2" stroke-miterlimit="10"/>
</svg>
