<svg width="43" height="43" viewBox="0 0 43 43" fill="none" xmlns="http://www.w3.org/2000/svg">
<path opacity="0.4" d="M36.8817 19.807C36.8817 28.2588 30.7459 36.1749 22.3632 38.4909C21.7929 38.6465 21.1706 38.6465 20.6002 38.4909C12.2175 36.1749 6.08171 28.2588 6.08171 19.807V12.2193C6.08171 10.802 7.15334 9.19465 8.48421 8.65884L18.1113 4.7181C20.2718 3.83662 22.7089 3.83662 24.8694 4.7181L34.4965 8.65884C35.8101 9.19465 36.899 10.802 36.899 12.2193L36.8817 19.807Z" fill="#00DEA3"/>
<path d="M25.8027 18.7354C25.8027 16.3502 23.8669 14.4144 21.4817 14.4144C19.0966 14.4144 17.1608 16.3502 17.1608 18.7354C17.1608 20.6712 18.4398 22.2786 20.1854 22.8316V27.3773C20.1854 28.086 20.7731 28.6736 21.4817 28.6736C22.1904 28.6736 22.778 28.086 22.778 27.3773V22.8316C24.5237 22.2786 25.8027 20.6712 25.8027 18.7354Z" fill="#00DEA3"/>
</svg>
