<svg width="32" height="32" viewBox="0 0 32 32" fill="none" xmlns="http://www.w3.org/2000/svg">
<path d="M16.4442 15.1261C18.8442 15.1261 20.7109 13.1706 20.7109 10.7706C20.7109 8.37057 18.7553 6.50391 16.3553 6.50391C13.9553 6.50391 12.0887 8.45946 12.0887 10.7706C12.0887 13.1706 14.0442 15.1261 16.4442 15.1261ZM16.3553 8.28168C16.4442 8.28168 16.4442 8.28168 16.3553 8.28168C17.7776 8.28168 18.9331 9.43724 18.9331 10.8595C18.9331 12.2817 17.7776 13.3484 16.3553 13.3484C14.9331 13.3484 13.8664 12.1928 13.8664 10.8595C13.8664 9.43724 15.022 8.28168 16.3553 8.28168Z" fill="#A0AEC0"/>
<path d="M29.5997 14.593C27.9109 13.0819 25.6886 12.2819 23.3775 12.3708H22.6664C22.4886 13.0819 22.222 13.7041 21.8664 14.2374C22.3997 14.1485 22.8442 14.1485 23.3775 14.1485C25.0664 14.0597 26.7553 14.593 28.0886 15.5708V21.9708H29.8664V14.8597L29.5997 14.593Z" fill="#A0AEC0"/>
<path d="M21.3331 6.68142C21.7776 5.61476 23.022 5.08142 24.1776 5.52587C25.2442 5.97031 25.7776 7.21476 25.3331 8.37031C24.9776 9.17031 24.1776 9.70365 23.3776 9.70365C23.1998 9.70365 22.9331 9.70365 22.7553 9.61476C22.8442 10.0592 22.8442 10.5036 22.8442 10.8592V11.3925C23.022 11.3925 23.1998 11.4814 23.3776 11.4814C25.5998 11.4814 27.3776 9.70365 27.3776 7.57031C27.3776 5.34809 25.5998 3.57031 23.4664 3.57031C22.0442 3.57031 20.7998 4.28142 20.0887 5.52587C20.5331 5.79253 20.9776 6.14809 21.3331 6.68142Z" fill="#A0AEC0"/>
<path d="M11.2 14.3265C10.8444 13.7932 10.5778 13.1709 10.4 12.4598H9.68889C7.37778 12.3709 5.15555 13.1709 3.46666 14.5932L3.2 14.8598V21.9709H4.97777V15.5709C6.4 14.5932 8 14.0598 9.68889 14.1487C10.2222 14.1487 10.7556 14.2376 11.2 14.3265Z" fill="#A0AEC0"/>
<path d="M9.68864 11.3931C9.86642 11.3931 10.0442 11.3931 10.222 11.3042V10.7709C10.222 10.3265 10.222 9.88202 10.3109 9.52647C10.1331 9.61536 9.86642 9.61536 9.68864 9.61536C8.53309 9.61536 7.55531 8.63758 7.55531 7.48202C7.55531 6.32647 8.53309 5.34869 9.68864 5.34869C10.5775 5.34869 11.3775 5.88202 11.7331 6.68202C12.0886 6.23758 12.622 5.79314 13.0664 5.43758C11.9109 3.57091 9.51087 2.94869 7.6442 4.10425C5.77753 5.2598 5.15531 7.6598 6.31087 9.52647C7.02198 10.682 8.26642 11.3931 9.68864 11.3931Z" fill="#A0AEC0"/>
<path d="M23.7334 19.9265L23.5556 19.6598C21.7778 17.7043 19.2889 16.5487 16.6223 16.6376C13.9556 16.5487 11.3778 17.7043 9.60003 19.6598L9.42226 19.9265V26.682C9.42226 27.482 10.0445 28.1931 10.9334 28.1931H22.3111C23.1111 28.1931 23.8223 27.482 23.8223 26.682V19.9265H23.7334ZM21.9556 26.4154H11.2V20.5487C12.6223 19.1265 14.5778 18.4154 16.6223 18.4154C18.5778 18.3265 20.5334 19.1265 21.9556 20.5487V26.4154Z" fill="#A0AEC0"/>
</svg>
